<svg width="33" height="33" viewBox="0 0 33 33" fill="none" xmlns="http://www.w3.org/2000/svg">
<rect width="33" height="33" fill="#595656"/>
<rect width="842" height="1324" transform="translate(-405 -288)" fill="white"/>
<rect width="842" height="1324" transform="translate(-405 -288)" fill="#F9FAFB"/>
<path d="M-405.485 -200.241H437V116.759C437 130.014 426.255 140.759 413 140.759H-381.485C-394.74 140.759 -405.485 130.014 -405.485 116.759V-200.241Z" fill="#005131"/>
<path d="M-106.157 -7.74072C-106.157 -12.159 -102.576 -15.7407 -98.1572 -15.7407H131.171C135.589 -15.7407 139.171 -12.159 139.171 -7.74072V96.2593C139.171 100.678 135.589 104.259 131.171 104.259H-98.1572C-102.576 104.259 -106.157 100.678 -106.157 96.2593V-7.74072Z" fill="#007949"/>
<path d="M15.1657 25.5926C21.0567 25.5926 25.8324 20.817 25.8324 14.9259C25.8324 9.03491 21.0567 4.25928 15.1657 4.25928C9.27465 4.25928 4.49902 9.03491 4.49902 14.9259C4.49902 20.817 9.27465 25.5926 15.1657 25.5926Z" stroke="white" stroke-width="2" stroke-linecap="round" stroke-linejoin="round"/>
<path d="M28.499 28.2592L22.7656 22.5259" stroke="white" stroke-width="2" stroke-linecap="round" stroke-linejoin="round"/>
</svg>
