<svg width="21" height="20" viewBox="0 0 21 20" fill="none" xmlns="http://www.w3.org/2000/svg">
<rect width="21" height="20" fill="#595656"/>
<g clip-path="url(#clip0_61_1037)">
<rect width="412" height="2843" transform="translate(-24 -2632)" fill="#F5F5F0"/>
<rect width="412" height="715" transform="translate(-24 -504)" fill="#111827"/>
<g clip-path="url(#clip1_61_1037)">
<path d="M18.4344 5.92662C18.4471 6.10428 18.4471 6.28197 18.4471 6.45963C18.4471 11.8784 14.3227 18.1221 6.78465 18.1221C4.4623 18.1221 2.30496 17.4494 0.490234 16.282C0.820195 16.32 1.13742 16.3327 1.48008 16.3327C3.39629 16.3327 5.16027 15.6855 6.56891 14.5815C4.76687 14.5434 3.25672 13.3632 2.73641 11.7388C2.99023 11.7769 3.24402 11.8022 3.51055 11.8022C3.87855 11.8022 4.2466 11.7515 4.58922 11.6627C2.71105 11.2819 1.30238 9.63221 1.30238 7.63982V7.58908C1.84805 7.89365 2.48262 8.084 3.15516 8.10935C2.05109 7.3733 1.32777 6.11697 1.32777 4.69564C1.32777 3.93424 1.53078 3.23627 1.88613 2.62713C3.90391 5.11443 6.93691 6.73877 10.3379 6.91646C10.2745 6.61189 10.2364 6.29467 10.2364 5.9774C10.2364 3.7185 12.0638 1.87842 14.3354 1.87842C15.5155 1.87842 16.5815 2.37334 17.3303 3.17283C18.2566 2.99518 19.145 2.65252 19.9318 2.18299C19.6272 3.13479 18.98 3.93428 18.1298 4.44186C18.9546 4.35307 19.7541 4.12459 20.4902 3.80736C19.9319 4.61951 19.2339 5.34283 18.4344 5.92662Z" fill="white"/>
</g>
</g>
<defs>
<clipPath id="clip0_61_1037">
<rect width="412" height="2843" fill="white" transform="translate(-24 -2632)"/>
</clipPath>
<clipPath id="clip1_61_1037">
<path d="M0.490234 0H20.4902V20H0.490234V0Z" fill="white"/>
</clipPath>
</defs>
</svg>
