<svg width="18" height="18" viewBox="0 0 18 18" fill="none" xmlns="http://www.w3.org/2000/svg">
<rect width="18" height="18" fill="#595656"/>
<g clip-path="url(#clip0_61_1037)">
<rect width="412" height="2843" transform="translate(-122 -2633)" fill="#F5F5F0"/>
<rect width="412" height="715" transform="translate(-122 -505)" fill="#111827"/>
<path d="M9.24707 4.51172C6.7627 4.51172 4.75879 6.51562 4.75879 9C4.75879 11.4844 6.7627 13.4883 9.24707 13.4883C11.7314 13.4883 13.7354 11.4844 13.7354 9C13.7354 6.51562 11.7314 4.51172 9.24707 4.51172ZM9.24707 11.918C7.6416 11.918 6.3291 10.6094 6.3291 9C6.3291 7.39062 7.6377 6.08203 9.24707 6.08203C10.8564 6.08203 12.165 7.39062 12.165 9C12.165 10.6094 10.8525 11.918 9.24707 11.918ZM14.9658 4.32812C14.9658 4.91016 14.4971 5.375 13.9189 5.375C13.3369 5.375 12.8721 4.90625 12.8721 4.32812C12.8721 3.75 13.3408 3.28125 13.9189 3.28125C14.4971 3.28125 14.9658 3.75 14.9658 4.32812ZM17.9385 5.39062C17.8721 3.98828 17.5518 2.74609 16.5244 1.72266C15.501 0.699219 14.2588 0.378906 12.8564 0.308594C11.4111 0.226562 7.0791 0.226562 5.63379 0.308594C4.23535 0.375 2.99316 0.695312 1.96582 1.71875C0.938477 2.74219 0.62207 3.98437 0.551758 5.38672C0.469727 6.83203 0.469727 11.1641 0.551758 12.6094C0.618164 14.0117 0.938477 15.2539 1.96582 16.2773C2.99316 17.3008 4.23145 17.6211 5.63379 17.6914C7.0791 17.7734 11.4111 17.7734 12.8564 17.6914C14.2588 17.625 15.501 17.3047 16.5244 16.2773C17.5479 15.2539 17.8682 14.0117 17.9385 12.6094C18.0205 11.1641 18.0205 6.83594 17.9385 5.39062ZM16.0713 14.1602C15.7666 14.9258 15.1768 15.5156 14.4072 15.8242C13.2549 16.2812 10.5205 16.1758 9.24707 16.1758C7.97363 16.1758 5.23535 16.2773 4.08691 15.8242C3.32129 15.5195 2.73145 14.9297 2.42285 14.1602C1.96582 13.0078 2.07129 10.2734 2.07129 9C2.07129 7.72656 1.96973 4.98828 2.42285 3.83984C2.72754 3.07422 3.31738 2.48437 4.08691 2.17578C5.23926 1.71875 7.97363 1.82422 9.24707 1.82422C10.5205 1.82422 13.2588 1.72266 14.4072 2.17578C15.1729 2.48047 15.7627 3.07031 16.0713 3.83984C16.5283 4.99219 16.4229 7.72656 16.4229 9C16.4229 10.2734 16.5283 13.0117 16.0713 14.1602Z" fill="white"/>
</g>
<defs>
<clipPath id="clip0_61_1037">
<rect width="412" height="2843" fill="white" transform="translate(-122 -2633)"/>
</clipPath>
</defs>
</svg>
