<svg width="21" height="20" viewBox="0 0 21 20" fill="none" xmlns="http://www.w3.org/2000/svg">
<path d="M17.3861 8.33366C17.3861 12.4945 12.7702 16.8278 11.2202 18.1662C11.0758 18.2747 10.9001 18.3335 10.7194 18.3335C10.5387 18.3335 10.363 18.2747 10.2186 18.1662C8.66857 16.8278 4.05273 12.4945 4.05273 8.33366C4.05273 6.56555 4.75511 4.86986 6.00536 3.61961C7.2556 2.36937 8.95129 1.66699 10.7194 1.66699C12.4875 1.66699 14.1832 2.36937 15.4334 3.61961C16.6837 4.86986 17.3861 6.56555 17.3861 8.33366Z" stroke="#007949" stroke-width="2" stroke-linecap="round" stroke-linejoin="round"/>
<path d="M10.7188 10.833C12.0995 10.833 13.2188 9.71372 13.2188 8.33301C13.2188 6.9523 12.0995 5.83301 10.7188 5.83301C9.33804 5.83301 8.21875 6.9523 8.21875 8.33301C8.21875 9.71372 9.33804 10.833 10.7188 10.833Z" stroke="#16A34A" stroke-width="2" stroke-linecap="round" stroke-linejoin="round"/>
</svg>
