<svg width="17" height="16" viewBox="0 0 17 16" fill="none" xmlns="http://www.w3.org/2000/svg">
<g clip-path="url(#clip0_642_5962)">
<path d="M10.0349 14.4577C10.0603 14.5208 10.1043 14.5747 10.1611 14.6121C10.2179 14.6494 10.2848 14.6685 10.3528 14.6668C10.4208 14.665 10.4867 14.6426 10.5415 14.6023C10.5963 14.5621 10.6375 14.506 10.6596 14.4417L14.9929 1.77503C15.0143 1.71596 15.0183 1.65203 15.0047 1.59073C14.991 1.52943 14.9602 1.47329 14.9158 1.42888C14.8713 1.38447 14.8152 1.35363 14.7539 1.33996C14.6926 1.32629 14.6287 1.33036 14.5696 1.3517L1.90294 5.68503C1.8386 5.70709 1.78255 5.74831 1.74232 5.80314C1.70208 5.85798 1.67959 5.92381 1.67784 5.9918C1.6761 6.05979 1.6952 6.12669 1.73258 6.18351C1.76995 6.24034 1.82382 6.28437 1.88694 6.3097L7.17361 8.4297C7.34073 8.49661 7.49257 8.59667 7.61998 8.72385C7.74739 8.85103 7.84773 9.00269 7.91494 9.1697L10.0349 14.4577Z" stroke="white" stroke-width="2" stroke-linecap="round" stroke-linejoin="round"/>
<path d="M14.9125 1.43164L7.61914 8.72431" stroke="white" stroke-width="2" stroke-linecap="round" stroke-linejoin="round"/>
</g>
<defs>
<clipPath id="clip0_642_5962">
<rect width="16" height="16" fill="white" transform="translate(0.34375)"/>
</clipPath>
</defs>
</svg>
