<svg width="33" height="33" viewBox="0 0 33 33" fill="none" xmlns="http://www.w3.org/2000/svg">
<rect width="33" height="33" fill="#595656"/>
<rect width="842" height="1324" transform="translate(-144 -288)" fill="white"/>
<rect width="842" height="1324" transform="translate(-144 -288)" fill="#F9FAFB"/>
<path d="M-144.485 -200.241H698V116.759C698 130.014 687.255 140.759 674 140.759H-120.485C-133.74 140.759 -144.485 130.014 -144.485 116.759V-200.241Z" fill="#005131"/>
<path d="M-106.485 -7.74072C-106.485 -12.159 -102.904 -15.7407 -98.4854 -15.7407H130.843C135.261 -15.7407 138.843 -12.159 138.843 -7.74072V96.2593C138.843 100.678 135.261 104.259 130.843 104.259H-98.4853C-102.904 104.259 -106.485 100.678 -106.485 96.2593V-7.74072Z" fill="#007949"/>
<path d="M26.8372 13.5924C26.8372 20.2498 19.4519 27.1831 16.9719 29.3244C16.7409 29.4982 16.4596 29.5921 16.1706 29.5921C15.8815 29.5921 15.6003 29.4982 15.3692 29.3244C12.8892 27.1831 5.50391 20.2498 5.50391 13.5924C5.50391 10.7635 6.62771 8.05036 8.6281 6.04998C10.6285 4.04959 13.3416 2.92578 16.1706 2.92578C18.9995 2.92578 21.7127 4.04959 23.713 6.04998C25.7134 8.05036 26.8372 10.7635 26.8372 13.5924Z" stroke="white" stroke-width="2" stroke-linecap="round" stroke-linejoin="round"/>
<path d="M16.1709 17.5928C18.38 17.5928 20.1709 15.8019 20.1709 13.5928C20.1709 11.3836 18.38 9.59277 16.1709 9.59277C13.9618 9.59277 12.1709 11.3836 12.1709 13.5928C12.1709 15.8019 13.9618 17.5928 16.1709 17.5928Z" stroke="white" stroke-width="2" stroke-linecap="round" stroke-linejoin="round"/>
</svg>
