<svg width="17" height="17" viewBox="0 0 17 17" fill="none" xmlns="http://www.w3.org/2000/svg">
<rect width="17" height="17" fill="#595656"/>
<path d="M-7226 -1465C-7226 -1466.1 -7225.1 -1467 -7224 -1467H11281C11282.1 -1467 11283 -1466.1 11283 -1465V3568C11283 3569.1 11282.1 3570 11281 3570H-7224C-7225.1 3570 -7226 3569.1 -7226 3568V-1465Z" fill="#444444"/>
<path d="M-7224 -1466H11281V-1468H-7224V-1466ZM11282 -1465V3568H11284V-1465H11282ZM11281 3569H-7224V3571H11281V3569ZM-7225 3568V-1465H-7227V3568H-7225ZM-7224 3569C-7224.55 3569 -7225 3568.55 -7225 3568H-7227C-7227 3569.66 -7225.66 3571 -7224 3571V3569ZM11282 3568C11282 3568.55 11281.6 3569 11281 3569V3571C11282.7 3571 11284 3569.66 11284 3568H11282ZM11281 -1466C11281.6 -1466 11282 -1465.55 11282 -1465H11284C11284 -1466.66 11282.7 -1468 11281 -1468V-1466ZM-7224 -1468C-7225.66 -1468 -7227 -1466.66 -7227 -1465H-7225C-7225 -1465.55 -7224.55 -1466 -7224 -1466V-1468Z" fill="white" fill-opacity="0.1"/>
<g clip-path="url(#clip0_61_1037)">
<rect width="1440" height="2072" transform="translate(-393 -1042)" fill="white"/>
<g filter="url(#filter0_d_61_1037)">
<g clip-path="url(#clip1_61_1037)">
<path d="M-17 -178C-17 -182.418 -13.4183 -186 -9 -186H307C311.418 -186 315 -182.418 315 -178V99C315 103.418 311.418 107 307 107H-9.00001C-13.4183 107 -17 103.418 -17 99V-178Z" fill="white"/>
<g clip-path="url(#clip2_61_1037)">
<path d="M8.30729 11.5003C9.78005 11.5003 10.974 10.3064 10.974 8.83366C10.974 7.3609 9.78005 6.16699 8.30729 6.16699C6.83453 6.16699 5.64062 7.3609 5.64062 8.83366C5.64062 10.3064 6.83453 11.5003 8.30729 11.5003Z" stroke="#9CA3AF" stroke-width="2" stroke-linecap="round" stroke-linejoin="round"/>
<path d="M10.974 6.167V9.50033C10.974 10.0308 11.1847 10.5395 11.5598 10.9145C11.9348 11.2896 12.4435 11.5003 12.974 11.5003C13.5044 11.5003 14.0131 11.2896 14.3882 10.9145C14.7633 10.5395 14.974 10.0308 14.974 9.50033V8.83366C14.974 7.33187 14.4669 5.87406 13.5349 4.69644C12.6029 3.51882 11.3006 2.69038 9.83898 2.34534C8.37736 2.0003 6.84205 2.15887 5.48181 2.79537C4.12157 3.43186 3.01608 4.50899 2.34445 5.85224C1.67283 7.19549 1.47442 8.72616 1.78137 10.1963C2.08832 11.6663 2.88264 12.9897 4.03565 13.952C5.18866 14.9143 6.63279 15.4591 8.13408 15.4981C9.63537 15.5371 11.1059 15.0681 12.3073 14.167" stroke="#9CA3AF" stroke-width="2" stroke-linecap="round" stroke-linejoin="round"/>
</g>
</g>
<path d="M-16.5 -178C-16.5 -182.142 -13.1421 -185.5 -9 -185.5H307C311.142 -185.5 314.5 -182.142 314.5 -178V99C314.5 103.142 311.142 106.5 307 106.5H-9.00001C-13.1421 106.5 -16.5 103.142 -16.5 99V-178Z" stroke="#E5E7EB"/>
</g>
</g>
<defs>
<filter id="filter0_d_61_1037" x="-19" y="-187" width="336" height="297" filterUnits="userSpaceOnUse" color-interpolation-filters="sRGB">
<feFlood flood-opacity="0" result="BackgroundImageFix"/>
<feColorMatrix in="SourceAlpha" type="matrix" values="0 0 0 0 0 0 0 0 0 0 0 0 0 0 0 0 0 0 127 0" result="hardAlpha"/>
<feOffset dy="1"/>
<feGaussianBlur stdDeviation="1"/>
<feColorMatrix type="matrix" values="0 0 0 0 0 0 0 0 0 0 0 0 0 0 0 0 0 0 0.05 0"/>
<feBlend mode="normal" in2="BackgroundImageFix" result="effect1_dropShadow_61_1037"/>
<feBlend mode="normal" in="SourceGraphic" in2="effect1_dropShadow_61_1037" result="shape"/>
</filter>
<clipPath id="clip0_61_1037">
<rect width="1440" height="2072" fill="white" transform="translate(-393 -1042)"/>
</clipPath>
<clipPath id="clip1_61_1037">
<path d="M-17 -178C-17 -182.418 -13.4183 -186 -9 -186H307C311.418 -186 315 -182.418 315 -178V99C315 103.418 311.418 107 307 107H-9.00001C-13.4183 107 -17 103.418 -17 99V-178Z" fill="white"/>
</clipPath>
<clipPath id="clip2_61_1037">
<rect width="16" height="16" fill="white" transform="translate(0.307617 0.833984)"/>
</clipPath>
</defs>
</svg>
