<svg width="17" height="17" viewBox="0 0 17 17" fill="none" xmlns="http://www.w3.org/2000/svg">
<g clip-path="url(#clip0_579_1015)">
<path d="M15.1826 12.1137V14.1137C15.1833 14.2994 15.1453 14.4832 15.0709 14.6533C14.9965 14.8234 14.8874 14.9761 14.7506 15.1016C14.6138 15.2272 14.4523 15.3227 14.2764 15.3822C14.1005 15.4417 13.9142 15.4638 13.7292 15.4471C11.6778 15.2242 9.70724 14.5232 7.97591 13.4004C6.36512 12.3768 4.99946 11.0112 3.97591 9.40039C2.84922 7.66119 2.14807 5.68105 1.92924 3.62039C1.91258 3.43603 1.93449 3.25023 1.99357 3.07481C2.05266 2.89938 2.14762 2.73818 2.27242 2.60147C2.39721 2.46476 2.54911 2.35553 2.71843 2.28074C2.88776 2.20595 3.0708 2.16723 3.25591 2.16706H5.25591C5.57944 2.16387 5.8931 2.27844 6.13841 2.48941C6.38373 2.70038 6.54396 2.99335 6.58924 3.31372C6.67365 3.95377 6.83021 4.58221 7.05591 5.18706C7.1456 5.42567 7.16501 5.685 7.11184 5.93431C7.05867 6.18362 6.93515 6.41246 6.75591 6.59372L5.90924 7.44039C6.85828 9.10942 8.24021 10.4914 9.90924 11.4404L10.7559 10.5937C10.9372 10.4145 11.166 10.291 11.4153 10.2378C11.6646 10.1846 11.924 10.204 12.1626 10.2937C12.7674 10.5194 13.3959 10.676 14.0359 10.7604C14.3598 10.8061 14.6555 10.9692 14.8669 11.2187C15.0783 11.4682 15.1907 11.7868 15.1826 12.1137Z" stroke="white" stroke-width="2" stroke-linecap="round" stroke-linejoin="round"/>
</g>
<defs>
<clipPath id="clip0_579_1015">
<rect width="16" height="16" fill="white" transform="translate(0.515625 0.833984)"/>
</clipPath>
</defs>
</svg>
