<svg width="23" height="18" viewBox="0 0 23 18" fill="none" xmlns="http://www.w3.org/2000/svg">
<path d="M8.125 1.875C8.125 0.839844 8.96484 0 10 0H12.5C13.5352 0 14.375 0.839844 14.375 1.875V4.375C14.375 5.41016 13.5352 6.25 12.5 6.25H12.1875V7.8125H18.125C19.332 7.8125 20.3125 8.79297 20.3125 10V11.25H20.625C21.6602 11.25 22.5 12.0898 22.5 13.125V15.625C22.5 16.6602 21.6602 17.5 20.625 17.5H18.125C17.0898 17.5 16.25 16.6602 16.25 15.625V13.125C16.25 12.0898 17.0898 11.25 18.125 11.25H18.4375V10C18.4375 9.82812 18.2969 9.6875 18.125 9.6875H12.1875V11.25H12.5C13.5352 11.25 14.375 12.0898 14.375 13.125V15.625C14.375 16.6602 13.5352 17.5 12.5 17.5H10C8.96484 17.5 8.125 16.6602 8.125 15.625V13.125C8.125 12.0898 8.96484 11.25 10 11.25H10.3125V9.6875H4.375C4.20312 9.6875 4.0625 9.82812 4.0625 10V11.25H4.375C5.41016 11.25 6.25 12.0898 6.25 13.125V15.625C6.25 16.6602 5.41016 17.5 4.375 17.5H1.875C0.839844 17.5 0 16.6602 0 15.625V13.125C0 12.0898 0.839844 11.25 1.875 11.25H2.1875V10C2.1875 8.79297 3.16797 7.8125 4.375 7.8125H10.3125V6.25H10C8.96484 6.25 8.125 5.41016 8.125 4.375V1.875Z" fill="#059669"/>
</svg>
